0
SECTION
2
HEADER
9
$INSUNITS
70
4
9
$ACADVER
1
AC1014
9
$HANDSEED
5
FFFF
0
ENDSEC
0
SECTION
2
TABLES
0
TABLE
2
VPORT
5
8
100
AcDbSymbolTable
0
ENDTAB
0
TABLE
2
LTYPE
5
5
100
AcDbSymbolTable
0
LTYPE
5
14
100
AcDbSymbolTableRecord
100
AcDbLinetypeTableRecord
2
BYBLOCK
70
0
0
LTYPE
5
15
100
AcDbSymbolTableRecord
100
AcDbLinetypeTableRecord
2
BYLAYER
70
0
0
LTYPE
5
16
100
AcDbSymbolTableRecord
100
AcDbLinetypeTableRecord
2
DASHED
70
0
3
Dashed __ __ __ __ __ __ __ __ __ __ __ __ __ _
72
65
73
2
40
0.75
49
0.5
74
0
49
-0.25
74
0
0
ENDTAB
0
TABLE
2
LAYER
5
2
100
AcDbSymbolTable
70
3
0
LAYER
5
50
100
AcDbSymbolTableRecord
100
AcDbLayerTableRecord
2
1
70
0
62
7
6
DASHED
0
LAYER
5
51
100
AcDbSymbolTableRecord
100
AcDbLayerTableRecord
2
0
70
0
62
7
6
CONTINUOUS
0
ENDTAB
0
TABLE
2
STYLE
5
3
100
AcDbSymbolTable
70
1
0
STYLE
5
11
100
AcDbSymbolTableRecord
100
AcDbTextStyleTableRecord
2
STANDARD
70
0
0
ENDTAB
0
TABLE
2
VIEW
5
6
100
AcDbSymbolTable
70
0
0
ENDTAB
0
TABLE
2
UCS
5
7
100
AcDbSymbolTable
70
0
0
ENDTAB
0
TABLE
2
APPID
5
9
100
AcDbSymbolTable
70
2
0
APPID
5
12
100
AcDbSymbolTableRecord
100
AcDbRegAppTableRecord
2
ACAD
70
0
0
ENDTAB
0
TABLE
2
DIMSTYLE
5
A
100
AcDbSymbolTable
70
1
0
ENDTAB
0
TABLE
2
BLOCK_RECORD
5
1
100
AcDbSymbolTable
70
1
0
BLOCK_RECORD
5
1F
100
AcDbSymbolTableRecord
100
AcDbBlockTableRecord
2
*MODEL_SPACE
0
BLOCK_RECORD
5
1B
100
AcDbSymbolTableRecord
100
AcDbBlockTableRecord
2
*PAPER_SPACE
0
ENDTAB
0
ENDSEC
0
SECTION
2
BLOCKS
0
BLOCK
5
20
100
AcDbEntity
100
AcDbBlockBegin
2
*MODEL_SPACE
0
ENDBLK
5
21
100
AcDbEntity
100
AcDbBlockEnd
0
BLOCK
5
1C
100
AcDbEntity
100
AcDbBlockBegin
2
*PAPER_SPACE
0
ENDBLK
5
1D
100
AcDbEntity
100
AcDbBlockEnd
0
ENDSEC
0
SECTION
2
ENTITIES
0
CIRCLE
5
100
100
AcDbEntity
8
0
100
AcDbCircle
10
5.0000000000000284
20
24.999999999999829
30
0
40
2.9999999999999933
210
-1.106670784502018e-77
220
4.3180842775472348e-78
230
1
0
LINE
5
101
100
AcDbEntity
8
0
100
AcDbLine
10
90.999999999999886
20
105.26279441628782
30
0
11
101.91106994671486
21
98.963285245405075
31
1.6192816040802084e-76
0
SPLINE
5
102
100
AcDbEntity
8
0
100
AcDbSpline
70
0
71
3
72
11
73
7
74
0
42
0.000000001
43
0.0000000001
44
0.0000000001
40
-9.283062633128047
40
-9.283062633128047
40
-9.283062633128047
40
-9.283062633128047
40
-8.6363170242739535
40
-8.6363170242739535
40
-8.6363170242739535
40
-6.3195156673576012
40
-6.3195156673576012
40
-6.3195156673576012
40
-6.3195156673576012
10
101.91106994672455
20
98.963285245398964
30
0
10
100.71438078558005
20
97.053965606251325
30
0
10
99.555381657650571
20
95.14036084214284
30
0
10
98.43413315542611
20
93.22242989608219
30
0
10
94.417546083429301
20
86.351930958829001
30
0
10
90.887235862694382
20
79.423504029424308
30
0
10
87.847421448020029
20
72.441920340538388
30
0
0
LINE
5
103
100
AcDbEntity
8
0
100
AcDbLine
10
87.847421448020029
20
72.441920340538388
30
0
11
75.999999999999901
21
79.282032302754729
31
-7.556647485707639e-77
0
LINE
5
104
100
AcDbEntity
8
0
100
AcDbLine
10
75.999999999999901
20
79.282032302754729
30
-7.556647485707639e-77
11
75.999999999999901
21
96.602540378443464
31
-8.6361685550944446e-77
0
LINE
5
105
100
AcDbEntity
8
0
100
AcDbLine
10
75.999999999999901
20
96.602540378443464
30
-8.6361685550944446e-77
11
90.999999999999886
21
105.26279441628782
31
0
0
LWPOLYLINE
5
106
100
AcDbEntity
8
0
100
AcDbPolyline
90
3
70
1
43
0.0
10
6.0000000000000409
20
35.980762113532968
10
6.0110750017574688
20
35.987156268778897
42
0.0056093719060369427
10
6.0000000000000497
20
34.999999999999794
0
LWPOLYLINE
5
107
100
AcDbEntity
8
0
100
AcDbPolyline
90
7
70
1
43
0.0
10
58.499999999999972
20
109.59292143521004
10
58.499999999999979
20
117.40113515752594
10
72.014911229447193
20
134.71626714729399
10
73.499999999999957
20
135.57368354874313
10
88.499999999999929
20
126.91342951089874
10
88.499999999999929
20
109.59292143521
10
73.499999999999957
20
100.93266739736565
0
LWPOLYLINE
5
108
100
AcDbEntity
8
0
100
AcDbPolyline
90
6
70
1
43
0.0
10
38.5
20
74.951905283832588
10
53.499999999999957
20
66.291651245988206
10
53.49999999999995
20
48.971143170299484
10
38.499999999999964
20
40.310889132455117
10
23.500000000000011
20
48.971143170299513
10
23.500000000000028
20
66.291651245988234
0
LWPOLYLINE
5
109
100
AcDbEntity
8
0
100
AcDbPolyline
90
7
70
1
43
0.0
10
123.49999999999987
20
187.53520777580928
10
123.49999999999987
20
177.59934207678464
42
0.26496976873421124
10
120.14902787796403
20
168.28001504341617
10
108.49999999999989
20
161.55444566227615
10
97.789399918285426
20
167.73821350263648
10
111.0807719680285
20
184.76694994486843
42
-0.095631114167624043
10
117.93604919992663
20
190.74755626798941
0
LINE
5
110
100
AcDbEntity
8
0
100
AcDbLine
10
77.996165224980288
20
42.906751335418548
30
0
11
73.499999999999886
21
40.310889132455081
31
-3.7783237428538195e-77
0
LINE
5
111
100
AcDbEntity
8
0
100
AcDbLine
10
73.499999999999886
20
40.310889132455081
30
-3.7783237428538195e-77
11
58.499999999999908
21
48.97114317029947
31
4.3180842775472223e-77
0
LINE
5
112
100
AcDbEntity
8
0
100
AcDbLine
10
58.499999999999908
20
48.97114317029947
30
4.3180842775472223e-77
11
58.499999999999915
21
66.291651245988191
31
-8.6361685550944446e-77
0
LINE
5
113
100
AcDbEntity
8
0
100
AcDbLine
10
58.499999999999915
20
66.291651245988191
30
-8.6361685550944446e-77
11
73.499999999999901
21
74.951905283832545
31
1.5113294971415278e-76
0
LINE
5
114
100
AcDbEntity
8
0
100
AcDbLine
10
73.499999999999901
20
74.951905283832545
30
1.5113294971415278e-76
11
85.899066517227979
21
67.793300892410826
31
1.5113294971415278e-76
0
SPLINE
5
115
100
AcDbEntity
8
0
100
AcDbSpline
70
0
71
3
72
8
73
4
74
0
42
0.000000001
43
0.0000000001
44
0.0000000001
40
-5.8061694295019706
40
-5.8061694295019706
40
-5.8061694295019706
40
-5.8061694295019706
40
-3.0854238004181251
40
-3.0854238004181251
40
-3.0854238004181251
40
-3.0854238004181251
10
85.899066517284098
20
67.793300892290432
30
0
10
82.584752556964133
20
59.567059541974402
30
0
10
79.94817450738303
20
51.268967254891358
30
0
10
77.996165224981567
20
42.906751335418249
30
0
0
CIRCLE
5
116
100
AcDbEntity
8
0
100
AcDbCircle
10
129.99999999999989
20
169.99999999999929
30
0
40
4.1499999999999817
210
-1.5384792122567406e-77
220
2.1590421387736289e-78
230
1
0
LINE
5
117
100
AcDbEntity
8
0
100
AcDbLine
10
104.6163956605465
20
103.17486740817502
30
0
11
93.499999999999915
21
109.59292143521
31
-2.1590421387736112e-76
0
LINE
5
118
100
AcDbEntity
8
0
100
AcDbLine
10
93.499999999999915
20
109.59292143521
30
-2.1590421387736112e-76
11
93.499999999999915
21
126.91342951089874
31
-8.6361685550944446e-77
0
LINE
5
119
100
AcDbEntity
8
0
100
AcDbLine
10
93.499999999999915
20
126.91342951089874
30
-8.6361685550944446e-77
11
108.49999999999987
21
135.57368354874311
31
0
0
LINE
5
120
100
AcDbEntity
8
0
100
AcDbLine
10
108.49999999999987
20
135.57368354874311
30
0
11
122.73707109533103
21
127.35390671938178
31
-2.1590421387736112e-77
0
SPLINE
5
121
100
AcDbEntity
8
0
100
AcDbSpline
70
0
71
3
72
8
73
4
74
0
42
0.000000001
43
0.0000000001
44
0.0000000001
40
-12.524534427325321
40
-12.524534427325321
40
-12.524534427325321
40
-12.524534427325321
40
-9.7593791271050314
40
-9.7593791271050314
40
-9.7593791271050314
40
-9.7593791271050314
10
122.73707115448704
20
127.35390666952927
30
0
10
116.01185153104117
20
119.36986630479109
30
0
10
109.97004782616381
20
111.31125615736687
30
0
10
104.61639566062601
20
103.17486740812274
30
0
0
LINE
5
122
100
AcDbEntity
8
0
100
AcDbLine
10
110.99999999999987
20
157.224318643354
30
0
11
122.22836195416522
21
163.70701644014989
31
1.2954252832641667e-76
0
ARC
5
123
100
AcDbEntity
8
0
100
AcDbCircle
10
129.99999999999989
20
169.99999999999929
30
0
40
9.9999999999999805
210
1.1426258085384437e-77
220
6.474160607769343e-78
230
1
100
AcDbArc
50
218.99837546382662
51
296.19235697245324
0
LINE
5
124
100
AcDbEntity
8
0
100
AcDbLine
10
134.41386158190448
20
161.02682743196146
30
-4.49810676448438e-77
11
140.99999999999986
21
157.22431864335397
31
9.7156896244812502e-77
0
LINE
5
125
100
AcDbEntity
8
0
100
AcDbLine
10
140.99999999999986
20
157.22431864335397
30
9.7156896244812502e-77
11
140.99999999999983
21
147.18934836926655
31
4.3180842775472223e-77
0
SPLINE
5
126
100
AcDbEntity
8
0
100
AcDbSpline
70
0
71
3
72
8
73
4
74
0
42
0.000000001
43
0.0000000001
44
0.0000000001
40
-14.832211386370071
40
-14.832211386370071
40
-14.832211386370071
40
-14.832211386370071
40
-12.984049819918647
40
-12.984049819918647
40
-12.984049819918647
40
-12.984049819918647
10
141.0000000000033
20
147.1893483692632
30
0
10
135.74481944923886
20
141.9347086157814
30
0
10
130.79317274338553
20
136.6479529374181
30
0
10
126.14647384574346
20
131.32812324383795
30
0
0
LINE
5
127
100
AcDbEntity
8
0
100
AcDbLine
10
126.14647384574346
20
131.32812324383795
30
0
11
125.99999999999986
21
131.24355652982086
31
-1.8554268380085721e-78
0
LINE
5
128
100
AcDbEntity
8
0
100
AcDbLine
10
125.99999999999986
20
131.24355652982086
30
-1.8554268380085721e-78
11
110.99999999999987
21
139.90381056766526
31
4.3180842775472223e-77
0
LINE
5
129
100
AcDbEntity
8
0
100
AcDbLine
10
110.99999999999987
20
139.90381056766526
30
4.3180842775472223e-77
11
110.99999999999987
21
157.224318643354
31
0
0
LWPOLYLINE
5
130
100
AcDbEntity
8
0
100
AcDbPolyline
90
5
70
1
43
0.0
10
94.682923657454396
20
163.75823571616223
10
105.99999999999993
20
157.22431864335402
10
105.99999999999989
20
139.90381056766526
10
90.999999999999915
20
131.24355652982092
10
76.044066092467986
20
139.87836899731676
0
LWPOLYLINE
5
131
100
AcDbEntity
8
0
100
AcDbPolyline
90
7
70
1
43
0.0
10
55.999999999999979
20
105.26279441628786
10
70.999999999999943
20
96.602540378443464
10
70.999999999999929
20
79.282032302754729
10
55.999999999999943
20
70.621778264910375
10
40.999999999999979
20
79.282032302754786
10
41.000000000000007
20
94.980358233685479
10
43.304769687517599
20
97.933199777951842
0
LINE
5
132
100
AcDbEntity
8
0
100
AcDbLine
10
1.27675647831893e-14
20
-1.021405182655144e-13
30
0
11
74.999999999999815
21
-1.895705814547452e-13
31
8.0841266698877497e-76
0
ARC
5
133
100
AcDbEntity
8
0
100
AcDbCircle
10
89.999999999999801
20
-2.0705659409259134e-13
30
0
40
14.999999999999966
210
-5.2926053459899296e-78
220
1.0594678536178557e-78
230
1
100
AcDbArc
50
131.81031489575787
51
180
0
LINE
5
134
100
AcDbEntity
8
0
100
AcDbLine
10
80.000000000003865
20
11.180339887502338
30
-6.4771264163208181e-77
11
80.00000000000486
21
13.94597996811218
31
-1.0795210693868056e-77
0
SPLINE
5
135
100
AcDbEntity
8
0
100
AcDbSpline
70
4
71
2
72
6
73
3
74
0
42
0.000000001
43
0.0000000001
44
0.0000000001
40
0
40
0
40
0
40
15.475266505091591
40
15.475266505091591
40
15.475266505091591
41
1
41
1
41
1
10
80.00000000000486
20
13.94597996811218
30
0
10
83.205004534484516
20
83.677851560775892
30
0
10
150.74461722852294
20
148.3283397949742
30
0
0
ARC
5
136
100
AcDbEntity
8
0
100
AcDbCircle
10
129.99999999999989
20
169.99999999999929
30
0
40
30.000000000000039
210
-3.8991689666526764e-78
220
-3.7323752290925086e-78
230
1
100
AcDbArc
50
-46.252047521295154
51
142.02703522383078
0
LINE
5
137
100
AcDbEntity
8
0
100
AcDbLine
10
106.35096496003609
20
188.45868743108625
30
-4.719905543500655e-76
11
10.584941600060347
21
65.764479051811108
31
6.9089348440755557e-76
0
ARC
5
138
100
AcDbEntity
8
0
100
AcDbCircle
10
49.999999999999936
20
34.999999999999758
30
0
40
49.999999999999872
210
1.0892642814424676e-77
220
-8.5019912512357195e-78
230
1
100
AcDbArc
50
142.02703522383095
51
180
0
LINE
5
139
100
AcDbEntity
8
0
100
AcDbLine
10
7.1054273576010019e-14
20
34.999999999999844
30
-2.1274692996923112e-76
11
1.27675647831893e-14
21
-1.021405182655144e-13
31
0
0
CIRCLE
5
140
100
AcDbEntity
8
0
100
AcDbCircle
10
5
20
-25.000000000000004
30
0
40
2.9999999999999933
210
-1.2954252832641667e-77
220
4.3180842775472223e-78
230
1
0
LINE
5
141
100
AcDbEntity
8
0
100
AcDbLine
10
101.91106994671475
20
-98.963285245405245
30
0
11
90.999999999999773
21
-105.26279441628799
31
-4.3180842775472223e-77
0
LINE
5
142
100
AcDbEntity
8
0
100
AcDbLine
10
90.999999999999773
20
-105.26279441628799
30
-4.3180842775472223e-77
11
75.999999999999787
21
-96.602540378443607
31
-1.5113294971415278e-76
0
LINE
5
143
100
AcDbEntity
8
0
100
AcDbLine
10
75.999999999999787
20
-96.602540378443607
30
-1.5113294971415278e-76
11
75.999999999999787
21
-79.282032302754899
31
-8.6361685550944446e-77
0
LINE
5
144
100
AcDbEntity
8
0
100
AcDbLine
10
75.999999999999787
20
-79.282032302754899
30
-8.6361685550944446e-77
11
87.847421448012781
21
-72.441920340541657
31
7.556647485707639e-77
0
SPLINE
5
145
100
AcDbEntity
8
0
100
AcDbSpline
70
0
71
3
72
11
73
7
74
0
42
0.000000001
43
0.0000000001
44
0.0000000001
40
6.3195156673576012
40
6.3195156673576012
40
6.3195156673576012
40
6.3195156673576012
40
8.6363170242739535
40
8.6363170242739535
40
8.6363170242739535
40
9.283062633128047
40
9.283062633128047
40
9.283062633128047
40
9.283062633128047
10
87.847421448019944
20
-72.441920340538587
30
0
10
90.887235862694297
20
-79.423504029424493
30
0
10
94.417546083429187
20
-86.3519309588292
30
0
10
98.434133155425997
20
-93.22242989608236
30
0
10
99.555381657650472
20
-95.140360842143039
30
0
10
100.71438078557995
20
-97.053965606251495
30
0
10
101.91106994672445
20
-98.963285245399163
30
0
0
LWPOLYLINE
5
146
100
AcDbEntity
8
0
100
AcDbPolyline
90
3
70
1
43
0.0
10
6.0110750017574315
20
-35.98715626877906
10
5.9999999999999947
20
-35.980762113533132
10
5.9999999999999964
20
-34.999999999999964
42
0.0056093719060344681
0
LWPOLYLINE
5
147
100
AcDbEntity
8
0
100
AcDbPolyline
90
7
70
1
43
0.0
10
58.499999999999844
20
-117.40113515752604
10
58.499999999999844
20
-109.59292143521017
10
73.499999999999829
20
-100.93266739736579
10
88.499999999999801
20
-109.59292143521014
10
88.499999999999787
20
-126.91342951089887
10
73.499999999999815
20
-135.57368354874322
10
72.014911229447051
20
-134.71626714729408
0
LWPOLYLINE
5
148
100
AcDbEntity
8
0
100
AcDbPolyline
90
6
70
1
43
0.0
10
53.499999999999872
20
-66.29165124598839
10
38.499999999999901
20
-74.95190528383273
10
23.49999999999995
20
-66.291651245988362
10
23.49999999999995
20
-48.971143170299669
10
38.499999999999936
20
-40.310889132455316
10
53.499999999999901
20
-48.971143170299669
0
LWPOLYLINE
5
149
100
AcDbEntity
8
0
100
AcDbPolyline
90
7
70
1
43
0.0
10
123.49999999999967
20
-177.59934207678469
10
123.49999999999966
20
-187.53520777580934
10
117.93604919992643
20
-190.74755626798949
42
-0.095631114167625611
10
111.08077196802827
20
-184.76694994486849
10
97.789399918285227
20
-167.73821350263657
10
108.49999999999973
20
-161.55444566227627
10
120.14902787796385
20
-168.28001504341628
42
0.2649697687342184
0
LINE
5
150
100
AcDbEntity
8
0
100
AcDbLine
10
73.499999999999829
20
-40.310889132455316
30
0
11
77.996165224980246
21
-42.906751335418782
31
7.556647485707639e-77
0
SPLINE
5
151
100
AcDbEntity
8
0
100
AcDbSpline
70
0
71
3
72
8
73
4
74
0
42
0.000000001
43
0.0000000001
44
0.0000000001
40
3.0854238004181251
40
3.0854238004181251
40
3.0854238004181251
40
3.0854238004181251
40
5.8061694295019706
40
5.8061694295019706
40
5.8061694295019706
40
5.8061694295019706
10
77.99616522498151
20
-42.906751335418477
30
0
10
79.948174507382973
20
-51.268967254891571
30
0
10
82.584752556964077
20
-59.567059541974601
30
0
10
85.899066517284012
20
-67.793300892290631
30
0
0
LINE
5
152
100
AcDbEntity
8
0
100
AcDbLine
10
85.899066517284012
20
-67.793300892290631
30
0
11
73.499999999999815
21
-74.95190528383273
31
-1.8351858179575695e-76
0
LINE
5
153
100
AcDbEntity
8
0
100
AcDbLine
10
73.499999999999815
20
-74.95190528383273
30
-1.8351858179575695e-76
11
58.499999999999844
21
-66.291651245988362
31
-6.4771264163208335e-77
0
LINE
5
154
100
AcDbEntity
8
0
100
AcDbLine
10
58.499999999999844
20
-66.291651245988362
30
-6.4771264163208335e-77
11
58.499999999999844
21
-48.971143170299669
31
-8.6361685550944446e-77
0
LINE
5
155
100
AcDbEntity
8
0
100
AcDbLine
10
58.499999999999844
20
-48.971143170299669
30
-8.6361685550944446e-77
11
73.499999999999829
21
-40.310889132455316
31
0
0
CIRCLE
5
156
100
AcDbEntity
8
0
100
AcDbCircle
10
129.99999999999949
20
-169.99999999999972
30
-6.067452555681089e-91
40
4.1499999999999817
210
-4.3180842775472223e-78
220
4.3180842775472233e-78
230
1
0
LINE
5
157
100
AcDbEntity
8
0
100
AcDbLine
10
93.499999999999773
20
-109.59292143521014
30
0
11
104.61639566054636
21
-103.17486740817517
31
-8.6361685550944446e-77
0
SPLINE
5
158
100
AcDbEntity
8
0
100
AcDbSpline
70
0
71
3
72
8
73
4
74
0
42
0.000000001
43
0.0000000001
44
0.0000000001
40
9.7593791271050314
40
9.7593791271050314
40
9.7593791271050314
40
9.7593791271050314
40
12.524534427325321
40
12.524534427325321
40
12.524534427325321
40
12.524534427325321
10
104.61639566062588
20
-103.17486740812292
30
0
10
109.97004782616369
20
-111.31125615736704
30
0
10
116.01185153104103
20
-119.36986630479124
30
0
10
122.7370711544869
20
-127.35390666952944
30
0
0
LINE
5
159
100
AcDbEntity
8
0
100
AcDbLine
10
122.7370711544869
20
-127.35390666952944
30
0
11
108.49999999999972
21
-135.57368354874322
31
2.1590421387736112e-77
0
LINE
5
160
100
AcDbEntity
8
0
100
AcDbLine
10
108.49999999999972
20
-135.57368354874322
30
2.1590421387736112e-77
11
93.499999999999773
21
-126.91342951089885
31
-4.3180842775472223e-77
0
LINE
5
161
100
AcDbEntity
8
0
100
AcDbLine
10
93.499999999999773
20
-126.91342951089885
30
-4.3180842775472223e-77
11
93.499999999999773
21
-109.59292143521014
31
0
0
LINE
5
162
100
AcDbEntity
8
0
100
AcDbLine
10
122.22836195416504
20
-163.70701644015
30
0
11
110.99999999999969
21
-157.22431864335411
31
-1.7272337110188889e-76
0
LINE
5
163
100
AcDbEntity
8
0
100
AcDbLine
10
110.99999999999969
20
-157.22431864335411
30
-1.7272337110188889e-76
11
110.99999999999969
21
-139.9038105676654
31
-4.3180842775472223e-77
0
LINE
5
164
100
AcDbEntity
8
0
100
AcDbLine
10
110.99999999999969
20
-139.9038105676654
30
-4.3180842775472223e-77
11
125.99999999999969
21
-131.24355652982103
31
-6.4771264163208335e-77
0
LINE
5
165
100
AcDbEntity
8
0
100
AcDbLine
10
125.99999999999969
20
-131.24355652982103
30
-6.4771264163208335e-77
11
126.14647384557682
21
-131.32812324399421
31
1.5180765038251953e-78
0
SPLINE
5
166
100
AcDbEntity
8
0
100
AcDbSpline
70
0
71
3
72
8
73
4
74
0
42
0.000000001
43
0.0000000001
44
0.0000000001
40
12.984049819918647
40
12.984049819918647
40
12.984049819918647
40
12.984049819918647
40
14.832211386370071
40
14.832211386370071
40
14.832211386370071
40
14.832211386370071
10
126.14647384574329
20
-131.32812324383809
30
0
10
130.79317274338538
20
-136.64795293741827
30
0
10
135.74481944923872
20
-141.93470861578157
30
0
10
141.0000000000031
20
-147.18934836926334
30
0
0
LINE
5
167
100
AcDbEntity
8
0
100
AcDbLine
10
141.0000000000031
20
-147.18934836926334
30
0
11
140.99999999999966
21
-157.22431864335411
31
4.3180842775472223e-77
0
LINE
5
168
100
AcDbEntity
8
0
100
AcDbLine
10
140.99999999999966
20
-157.22431864335411
30
4.3180842775472223e-77
11
134.41386158190429
21
-161.02682743196158
31
-3.2385632081604167e-77
0
ARC
5
169
100
AcDbEntity
8
0
100
AcDbCircle
10
129.99999999999949
20
-169.99999999999972
30
-6.067452555681089e-91
40
10.000000000000353
210
-7.2885989892896532e-78
220
7.1943895714527293e-78
230
1
100
AcDbArc
50
63.807643027546547
51
141.00162453617119
0
LWPOLYLINE
5
170
100
AcDbEntity
8
0
100
AcDbPolyline
90
5
70
1
43
0.0
10
105.99999999999973
20
-157.22431864335411
10
94.682923657454197
20
-163.75823571616229
10
76.04406609246783
20
-139.87836899731684
10
90.999999999999773
20
-131.24355652982103
10
105.99999999999973
20
-139.90381056766537
0
LWPOLYLINE
5
171
100
AcDbEntity
8
0
100
AcDbPolyline
90
7
70
1
43
0.0
10
70.999999999999815
20
-96.602540378443607
10
55.999999999999844
20
-105.26279441628796
10
43.304769687517478
20
-97.933199777951955
10
40.999999999999901
20
-94.980358233685607
10
40.999999999999886
20
-79.282032302754914
10
55.999999999999872
20
-70.621778264910532
10
70.999999999999829
20
-79.282032302754885
0
LINE
5
172
100
AcDbEntity
8
0
100
AcDbLine
10
74.999999999999815
20
-1.0214051826551443e-13
30
0
11
8.8817841970012523e-15
21
-1.021405182655144e-13
31
-6.9089348440755557e-76
0
LINE
5
173
100
AcDbEntity
8
0
100
AcDbLine
10
8.8817841970012523e-15
20
-1.021405182655144e-13
30
-6.9089348440755557e-76
11
3.0531133177191729e-14
21
-34.999999999999957
31
1.7272337110188889e-76
0
ARC
5
174
100
AcDbEntity
8
0
100
AcDbCircle
10
49.999999999999893
20
-34.999999999999957
30
0
40
49.999999999999865
210
3.4544674220377872e-78
220
4.3180842775472223e-78
230
1
100
AcDbArc
50
180
51
217.97296477616894
0
LINE
5
175
100
AcDbEntity
8
0
100
AcDbLine
10
10.584941600060279
20
-65.764479051811207
30
-7.1814410657636701e-76
11
106.35096496003584
21
-188.45868743108625
31
6.9089348440755557e-76
0
ARC
5
176
100
AcDbEntity
8
0
100
AcDbCircle
10
129.99999999999949
20
-169.99999999999972
30
-6.067452555681089e-91
40
29.999999999999684
210
1.0183787892674623e-77
220
2.4381838057249369e-77
230
1
100
AcDbArc
50
-142.02703522383126
51
46.25204752129509
0
SPLINE
5
177
100
AcDbEntity
8
0
100
AcDbSpline
70
4
71
2
72
6
73
3
74
0
42
0.000000001
43
0.0000000001
44
0.0000000001
40
-15.475266505091591
40
-15.475266505091591
40
-15.475266505091591
40
0
40
0
40
0
41
1
41
1
41
1
10
150.74461722852274
20
-148.32833979497434
30
0
10
83.205004534484431
20
-83.677851560776077
30
0
10
80.000000000004846
20
-13.945979968112457
30
0
0
LINE
5
178
100
AcDbEntity
8
0
100
AcDbLine
10
80.00000000000486
20
-13.945979968112471
30
0
11
80.000000000003851
21
-11.180339887502612
31
-1.0795210693868056e-77
0
ARC
5
179
100
AcDbEntity
8
0
100
AcDbCircle
10
89.999999999999915
20
-2.886579864025407e-14
30
1.649148585998455e-90
40
15.000000000000098
210
-1.337226999653179e-91
220
4.8678714201229422e-78
230
1
100
AcDbArc
50
180
51
228.18968510424185
0
ENDSEC
0
SECTION
2
OBJECTS
0
DICTIONARY
5
C
100
AcDbDictionary
3
ACAD_GROUP
350
D
3
ACAD_MLINESTYLE
350
17
0
DICTIONARY
5
D
100
AcDbDictionary
0
DICTIONARY
5
1A
330
C
100
AcDbDictionary
0
DICTIONARY
5
17
100
AcDbDictionary
0
ENDSEC
0
EOF
