<?xml version="1.0" standalone="no"?>
<!DOCTYPE svg PUBLIC "-//W3C//DTD SVG 1.1//EN"
"http://www.w3.org/Graphics/SVG/1.1/DTD/svg11.dtd">
<svg width="262.866" height="234.066" viewBox="0 0 5476.38 4876.38" version="1.1"
xmlns="http://www.w3.org/2000/svg"
xmlns:xlink="http://www.w3.org/1999/xlink">
<polyline points="3971.07,3238.19 3972.54,3224.25 3972.54,3224.23 3976.87,3210.91 3976.88,3210.87 3983.88,3198.76 3983.89,3198.74 3993.26,3188.32 3993.29,3188.3 4004.61,3180.08 4004.65,3180.06 4017.43,3174.37 4017.46,3174.35 4031.15,3171.44 4031.19,3171.44 4045.18,3171.44 4045.2,3171.44 4058.91,3174.35 4058.94,3174.36 4071.73,3180.06 4071.76,3180.08 4083.08,3188.3 4083.11,3188.32 4092.47,3198.72 4092.49,3198.76 4099.49,3210.87 4099.5,3210.91 4103.83,3224.21 4103.84,3224.25 4105.3,3238.17 4105.3,3238.21 4103.84,3252.12 4103.83,3252.16 4099.5,3265.47 4099.49,3265.5 4092.49,3277.62 4092.47,3277.65 4083.11,3288.05 4083.08,3288.07 4071.76,3296.3 4071.73,3296.32 4058.94,3302.01 4058.91,3302.02 4045.2,3304.93 4045.18,3304.93 4031.19,3304.93 4031.15,3304.93 4017.46,3302.02 4017.43,3302.01 4004.65,3296.32 4004.61,3296.3 3993.29,3288.07 3993.27,3288.05 3983.89,3277.63 3983.88,3277.62 3976.88,3265.5 3976.87,3265.47 3972.54,3252.14 3972.54,3252.12 3971.07,3238.19" style="stroke:rgb(255,0,0);stroke-width:15.748031;fill:none;stroke-opacity:0.5;stroke-linecap:round;stroke-linejoin:round;;fill:none"/>
<polyline points="3971.07,3238.19 3972.54,3224.25 3972.54,3224.23 3976.87,3210.91 3976.88,3210.87 3983.88,3198.76 3983.89,3198.74 3993.26,3188.32 3993.29,3188.3 4004.61,3180.08 4004.65,3180.06 4017.43,3174.37 4017.46,3174.35 4031.15,3171.44 4031.19,3171.44 4045.18,3171.44 4045.2,3171.44 4058.91,3174.35 4058.94,3174.36 4071.73,3180.06 4071.76,3180.08 4083.08,3188.3 4083.11,3188.32 4092.47,3198.72 4092.49,3198.76 4099.49,3210.87 4099.5,3210.91 4103.83,3224.21 4103.84,3224.25 4105.3,3238.17 4105.3,3238.21 4103.84,3252.12 4103.83,3252.16 4099.5,3265.47 4099.49,3265.5 4092.49,3277.62 4092.47,3277.65 4083.11,3288.05 4083.08,3288.07 4071.76,3296.3 4071.73,3296.32 4058.94,3302.01 4058.91,3302.02 4045.2,3304.93 4045.18,3304.93 4031.19,3304.93 4031.15,3304.93 4017.46,3302.02 4017.43,3302.01 4004.65,3296.32 4004.61,3296.3 3993.29,3288.07 3993.27,3288.05 3983.89,3277.63 3983.88,3277.62 3976.88,3265.5 3976.87,3265.47 3972.54,3252.14 3972.54,3252.12 3971.07,3238.19" style="stroke:rgb(0,0,0);stroke-width:1px;fill:none;stroke-opacity:1;stroke-linecap:round;stroke-linejoin:round;;fill:none"/>
<polyline points="4756.74,3238.19 4758.21,3224.25 4758.21,3224.23 4762.54,3210.91 4762.55,3210.87 4769.55,3198.76 4769.56,3198.74 4778.93,3188.32 4778.96,3188.3 4790.28,3180.08 4790.32,3180.06 4803.1,3174.37 4803.13,3174.35 4816.82,3171.44 4816.86,3171.44 4830.85,3171.44 4830.89,3171.44 4844.58,3174.35 4844.61,3174.36 4857.39,3180.06 4857.43,3180.08 4868.75,3188.3 4868.76,3188.31 4878.14,3198.72 4878.16,3198.76 4885.16,3210.87 4885.17,3210.91 4889.5,3224.21 4889.5,3224.25 4890.97,3238.17 4890.97,3238.21 4889.5,3252.12 4889.5,3252.16 4885.17,3265.47 4885.16,3265.5 4878.16,3277.62 4878.14,3277.65 4868.76,3288.06 4868.75,3288.07 4857.43,3296.3 4857.39,3296.32 4844.61,3302.01 4844.58,3302.02 4830.89,3304.93 4830.85,3304.93 4816.86,3304.93 4816.82,3304.93 4803.13,3302.02 4803.1,3302.01 4790.32,3296.32 4790.28,3296.3 4778.96,3288.07 4778.93,3288.05 4769.56,3277.63 4769.55,3277.62 4762.55,3265.5 4762.54,3265.47 4758.21,3252.14 4758.21,3252.12 4756.74,3238.19" style="stroke:rgb(255,0,0);stroke-width:15.748031;fill:none;stroke-opacity:0.5;stroke-linecap:round;stroke-linejoin:round;;fill:none"/>
<polyline points="4756.74,3238.19 4758.21,3224.25 4758.21,3224.23 4762.54,3210.91 4762.55,3210.87 4769.55,3198.76 4769.56,3198.74 4778.93,3188.32 4778.96,3188.3 4790.28,3180.08 4790.32,3180.06 4803.1,3174.37 4803.13,3174.35 4816.82,3171.44 4816.86,3171.44 4830.85,3171.44 4830.89,3171.44 4844.58,3174.35 4844.61,3174.36 4857.39,3180.06 4857.43,3180.08 4868.75,3188.3 4868.76,3188.31 4878.14,3198.72 4878.16,3198.76 4885.16,3210.87 4885.17,3210.91 4889.5,3224.21 4889.5,3224.25 4890.97,3238.17 4890.97,3238.21 4889.5,3252.12 4889.5,3252.16 4885.17,3265.47 4885.16,3265.5 4878.16,3277.62 4878.14,3277.65 4868.76,3288.06 4868.75,3288.07 4857.43,3296.3 4857.39,3296.32 4844.61,3302.01 4844.58,3302.02 4830.89,3304.93 4830.85,3304.93 4816.86,3304.93 4816.82,3304.93 4803.13,3302.02 4803.1,3302.01 4790.32,3296.32 4790.28,3296.3 4778.96,3288.07 4778.93,3288.05 4769.56,3277.63 4769.55,3277.62 4762.55,3265.5 4762.54,3265.47 4758.21,3252.14 4758.21,3252.12 4756.74,3238.19" style="stroke:rgb(0,0,0);stroke-width:1px;fill:none;stroke-opacity:1;stroke-linecap:round;stroke-linejoin:round;;fill:none"/>
<polyline points="3971.07,3238.19 3972.54,3252.12 3972.54,3252.14 3976.87,3265.47 3976.88,3265.5 3983.88,3277.62 3983.89,3277.63 3993.27,3288.05 3993.29,3288.07 4004.61,3296.3 4004.65,3296.32 4017.43,3302.01 4017.46,3302.02 4031.15,3304.93 4031.19,3304.93 4045.18,3304.93 4045.2,3304.93 4058.91,3302.02 4058.94,3302.01 4071.73,3296.32 4071.76,3296.3 4083.08,3288.07 4083.11,3288.05 4092.47,3277.65 4092.49,3277.62 4099.49,3265.5 4099.5,3265.47 4103.83,3252.16 4103.84,3252.12 4105.3,3238.21 4105.3,3238.17 4103.84,3224.25 4103.83,3224.21 4099.5,3210.91 4099.49,3210.87 4092.49,3198.76 4092.47,3198.72 4083.11,3188.32 4083.08,3188.3 4071.76,3180.08 4071.73,3180.06 4058.94,3174.36 4058.91,3174.35 4045.2,3171.44 4045.18,3171.44 4031.19,3171.44 4031.15,3171.44 4017.46,3174.35 4017.43,3174.37 4004.65,3180.06 4004.61,3180.08 3993.29,3188.3 3993.26,3188.32 3983.89,3198.74 3983.88,3198.76 3976.88,3210.87 3976.87,3210.91 3972.54,3224.23 3972.54,3224.25 3971.07,3238.19" style="stroke:rgb(255,0,0);stroke-width:15.748031;fill:none;stroke-opacity:0.5;stroke-linecap:round;stroke-linejoin:round;;fill:none"/>
<polyline points="3971.07,3238.19 3972.54,3252.12 3972.54,3252.14 3976.87,3265.47 3976.88,3265.5 3983.88,3277.62 3983.89,3277.63 3993.27,3288.05 3993.29,3288.07 4004.61,3296.3 4004.65,3296.32 4017.43,3302.01 4017.46,3302.02 4031.15,3304.93 4031.19,3304.93 4045.18,3304.93 4045.2,3304.93 4058.91,3302.02 4058.94,3302.01 4071.73,3296.32 4071.76,3296.3 4083.08,3288.07 4083.11,3288.05 4092.47,3277.65 4092.49,3277.62 4099.49,3265.5 4099.5,3265.47 4103.83,3252.16 4103.84,3252.12 4105.3,3238.21 4105.3,3238.17 4103.84,3224.25 4103.83,3224.21 4099.5,3210.91 4099.49,3210.87 4092.49,3198.76 4092.47,3198.72 4083.11,3188.32 4083.08,3188.3 4071.76,3180.08 4071.73,3180.06 4058.94,3174.36 4058.91,3174.35 4045.2,3171.44 4045.18,3171.44 4031.19,3171.44 4031.15,3171.44 4017.46,3174.35 4017.43,3174.37 4004.65,3180.06 4004.61,3180.08 3993.29,3188.3 3993.26,3188.32 3983.89,3198.74 3983.88,3198.76 3976.88,3210.87 3976.87,3210.91 3972.54,3224.23 3972.54,3224.25 3971.07,3238.19" style="stroke:rgb(0,0,0);stroke-width:1px;fill:none;stroke-opacity:1;stroke-linecap:round;stroke-linejoin:round;;fill:none"/>
<polyline points="4756.74,3238.19 4758.21,3252.12 4758.21,3252.14 4762.54,3265.47 4762.55,3265.5 4769.55,3277.62 4769.56,3277.63 4778.93,3288.05 4778.96,3288.07 4790.28,3296.3 4790.32,3296.32 4803.1,3302.01 4803.13,3302.02 4816.82,3304.93 4816.86,3304.93 4830.85,3304.93 4830.89,3304.93 4844.58,3302.02 4844.61,3302.01 4857.39,3296.32 4857.43,3296.3 4868.75,3288.07 4868.76,3288.06 4878.14,3277.65 4878.16,3277.62 4885.16,3265.5 4885.17,3265.47 4889.5,3252.16 4889.5,3252.12 4890.97,3238.21 4890.97,3238.17 4889.5,3224.25 4889.5,3224.21 4885.17,3210.91 4885.16,3210.87 4878.16,3198.76 4878.14,3198.72 4868.76,3188.31 4868.75,3188.3 4857.43,3180.08 4857.39,3180.06 4844.61,3174.36 4844.58,3174.35 4830.89,3171.44 4830.85,3171.44 4816.86,3171.44 4816.82,3171.44 4803.13,3174.35 4803.1,3174.37 4790.32,3180.06 4790.28,3180.08 4778.96,3188.3 4778.93,3188.32 4769.56,3198.74 4769.55,3198.76 4762.55,3210.87 4762.54,3210.91 4758.21,3224.23 4758.21,3224.25 4756.74,3238.19" style="stroke:rgb(255,0,0);stroke-width:15.748031;fill:none;stroke-opacity:0.5;stroke-linecap:round;stroke-linejoin:round;;fill:none"/>
<polyline points="4756.74,3238.19 4758.21,3252.12 4758.21,3252.14 4762.54,3265.47 4762.55,3265.5 4769.55,3277.62 4769.56,3277.63 4778.93,3288.05 4778.96,3288.07 4790.28,3296.3 4790.32,3296.32 4803.1,3302.01 4803.13,3302.02 4816.82,3304.93 4816.86,3304.93 4830.85,3304.93 4830.89,3304.93 4844.58,3302.02 4844.61,3302.01 4857.39,3296.32 4857.43,3296.3 4868.75,3288.07 4868.76,3288.06 4878.14,3277.65 4878.16,3277.62 4885.16,3265.5 4885.17,3265.47 4889.5,3252.16 4889.5,3252.12 4890.97,3238.21 4890.97,3238.17 4889.5,3224.25 4889.5,3224.21 4885.17,3210.91 4885.16,3210.87 4878.16,3198.76 4878.14,3198.72 4868.76,3188.31 4868.75,3188.3 4857.43,3180.08 4857.39,3180.06 4844.61,3174.36 4844.58,3174.35 4830.89,3171.44 4830.85,3171.44 4816.86,3171.44 4816.82,3171.44 4803.13,3174.35 4803.1,3174.37 4790.32,3180.06 4790.28,3180.08 4778.96,3188.3 4778.93,3188.32 4769.56,3198.74 4769.55,3198.76 4762.55,3210.87 4762.54,3210.91 4758.21,3224.23 4758.21,3224.25 4756.74,3238.19" style="stroke:rgb(0,0,0);stroke-width:1px;fill:none;stroke-opacity:1;stroke-linecap:round;stroke-linejoin:round;;fill:none"/>
</svg>
