<?xml version="1.0" standalone="no"?>
<!DOCTYPE svg PUBLIC "-//W3C//DTD SVG 1.1//EN"
"http://www.w3.org/Graphics/SVG/1.1/DTD/svg11.dtd">
<svg width="262.866" height="234.066" viewBox="0 0 5476.38 4876.38" version="1.1"
xmlns="http://www.w3.org/2000/svg"
xmlns:xlink="http://www.w3.org/1999/xlink">
<polyline points="622.797,581.959 622.797,568.787 623.151,565.521 630.409,550.771 632.115,547.889 635.695,545.497 648.425,539.125 651.507,537.979 696.987,537.793 700.285,536.649 711.321,534.409 712.843,534.409 715.611,541.011 716.535,547.615 716.535,596.193 713.823,607.509 710.603,607.959 703.185,610.171 696.993,612.783 653.707,612.867 650.763,612.619 635.691,605.255 632.303,603.107 630.415,599.969 624.045,587.239 623.045,584.901 622.797,581.959" style="stroke:rgb(255,0,0);stroke-width:314.960630;fill:none;stroke-opacity:0.5;stroke-linecap:round;stroke-linejoin:round;;fill:none"/>
<polyline points="622.797,581.959 622.797,568.787 623.151,565.521 630.409,550.771 632.115,547.889 635.695,545.497 648.425,539.125 651.507,537.979 696.987,537.793 700.285,536.649 711.321,534.409 712.843,534.409 715.611,541.011 716.535,547.615 716.535,596.193 713.823,607.509 710.603,607.959 703.185,610.171 696.993,612.783 653.707,612.867 650.763,612.619 635.691,605.255 632.303,603.107 630.415,599.969 624.045,587.239 623.045,584.901 622.797,581.959" style="stroke:rgb(0,0,0);stroke-width:1px;fill:none;stroke-opacity:1;stroke-linecap:round;stroke-linejoin:round;;fill:none"/>
<polyline points="810.273,596.193 810.273,498.309 811.195,491.705 813.961,485.103 815.479,485.103 826.517,482.865 829.813,481.719 846.192,481.719" style="stroke:rgb(255,0,0);stroke-width:314.960630;fill:none;stroke-opacity:0.5;stroke-linecap:round;stroke-linejoin:round;;fill:none"/>
<polyline points="810.273,596.193 810.273,498.309 811.195,491.705 813.961,485.103 815.479,485.103 826.517,482.865 829.813,481.719 846.192,481.719" style="stroke:rgb(0,0,0);stroke-width:1px;fill:none;stroke-opacity:1;stroke-linecap:round;stroke-linejoin:round;;fill:none"/>
<polyline points="859.864,612.848 829.279,612.695 823.623,610.171 816.203,607.957 812.983,607.509 810.273,596.193" style="stroke:rgb(255,0,0);stroke-width:314.960630;fill:none;stroke-opacity:0.5;stroke-linecap:round;stroke-linejoin:round;;fill:none"/>
<polyline points="859.864,612.848 829.279,612.695 823.623,610.171 816.203,607.957 812.983,607.509 810.273,596.193" style="stroke:rgb(0,0,0);stroke-width:1px;fill:none;stroke-opacity:1;stroke-linecap:round;stroke-linejoin:round;;fill:none"/>
</svg>
