M48
; DRILL file {KiCad 8.0.6} date 2024-12-05T17:18:23+0100
; FORMAT={-:-/ absolute / metric / decimal}
; #@! TF.CreationDate,2024-12-05T17:18:23+01:00
; #@! TF.GenerationSoftware,Kicad,Pcbnew,8.0.6
; #@! TF.FileFunction,Plated,1,2,PTH
FMAT,2
METRIC
; #@! TA.AperFunction,Plated,PTH,ComponentDrill
T1C1.000
%
G90
G05
T1
X68.58Y-50.8
X68.58Y-53.34
X68.58Y-55.88
X68.58Y-58.42
X68.58Y-60.96
X68.58Y-63.5
X68.58Y-66.04
X68.58Y-68.58
X68.58Y-71.12
X68.58Y-73.66
X68.58Y-76.2
X68.58Y-78.74
X68.58Y-81.28
X68.58Y-83.82
X68.58Y-86.36
X68.58Y-88.9
X68.58Y-91.44
X68.58Y-93.98
X68.58Y-96.52
X93.98Y-50.8
X93.98Y-53.34
X93.98Y-55.88
X93.98Y-58.42
X93.98Y-60.96
X93.98Y-63.5
X93.98Y-66.04
X93.98Y-68.58
X93.98Y-71.12
X93.98Y-73.66
X93.98Y-76.2
X93.98Y-78.74
X93.98Y-81.28
X93.98Y-83.82
X93.98Y-86.36
X93.98Y-88.9
X93.98Y-91.44
X93.98Y-93.98
X93.98Y-96.52
X103.958Y-71.12
X103.958Y-73.66
X103.958Y-76.2
X103.958Y-78.74
X103.958Y-81.28
X103.958Y-83.82
X103.958Y-91.44
X103.958Y-93.98
X104.14Y-53.34
X104.14Y-55.88
X104.14Y-58.42
M30
