%TF.GenerationSoftware,KiCad,Pcbnew,8.0.6*%
%TF.CreationDate,2024-12-05T17:18:26+01:00*%
%TF.ProjectId,Kabelsperma,4b616265-6c73-4706-9572-6d612e6b6963,rev?*%
%TF.SameCoordinates,Original*%
%TF.FileFunction,Drillmap*%
%TF.FilePolarity,Positive*%
%FSLAX45Y45*%
G04 Gerber Fmt 4.5, Leading zero omitted, Abs format (unit mm)*
G04 Created by KiCad (PCBNEW 8.0.6) date 2024-12-05 17:18:26*
%MOMM*%
%LPD*%
G01*
G04 APERTURE LIST*
%ADD10C,0.050000*%
%ADD11C,0.200000*%
G04 APERTURE END LIST*
D10*
X10922000Y-4572000D02*
X4572000Y-4572000D01*
X4572000Y-10160000D01*
X10922000Y-10160000D01*
X10922000Y-4572000D01*
D11*
X4830277Y-10473984D02*
X4830277Y-10273984D01*
X4830277Y-10273984D02*
X4877896Y-10273984D01*
X4877896Y-10273984D02*
X4906467Y-10283508D01*
X4906467Y-10283508D02*
X4925515Y-10302555D01*
X4925515Y-10302555D02*
X4935039Y-10321603D01*
X4935039Y-10321603D02*
X4944563Y-10359698D01*
X4944563Y-10359698D02*
X4944563Y-10388270D01*
X4944563Y-10388270D02*
X4935039Y-10426365D01*
X4935039Y-10426365D02*
X4925515Y-10445412D01*
X4925515Y-10445412D02*
X4906467Y-10464460D01*
X4906467Y-10464460D02*
X4877896Y-10473984D01*
X4877896Y-10473984D02*
X4830277Y-10473984D01*
X5030277Y-10473984D02*
X5030277Y-10340650D01*
X5030277Y-10378746D02*
X5039801Y-10359698D01*
X5039801Y-10359698D02*
X5049324Y-10350174D01*
X5049324Y-10350174D02*
X5068372Y-10340650D01*
X5068372Y-10340650D02*
X5087420Y-10340650D01*
X5154086Y-10473984D02*
X5154086Y-10340650D01*
X5154086Y-10273984D02*
X5144563Y-10283508D01*
X5144563Y-10283508D02*
X5154086Y-10293031D01*
X5154086Y-10293031D02*
X5163610Y-10283508D01*
X5163610Y-10283508D02*
X5154086Y-10273984D01*
X5154086Y-10273984D02*
X5154086Y-10293031D01*
X5277896Y-10473984D02*
X5258848Y-10464460D01*
X5258848Y-10464460D02*
X5249324Y-10445412D01*
X5249324Y-10445412D02*
X5249324Y-10273984D01*
X5382658Y-10473984D02*
X5363610Y-10464460D01*
X5363610Y-10464460D02*
X5354086Y-10445412D01*
X5354086Y-10445412D02*
X5354086Y-10273984D01*
X5611229Y-10473984D02*
X5611229Y-10273984D01*
X5611229Y-10273984D02*
X5677896Y-10416841D01*
X5677896Y-10416841D02*
X5744562Y-10273984D01*
X5744562Y-10273984D02*
X5744562Y-10473984D01*
X5925515Y-10473984D02*
X5925515Y-10369222D01*
X5925515Y-10369222D02*
X5915991Y-10350174D01*
X5915991Y-10350174D02*
X5896943Y-10340650D01*
X5896943Y-10340650D02*
X5858848Y-10340650D01*
X5858848Y-10340650D02*
X5839801Y-10350174D01*
X5925515Y-10464460D02*
X5906467Y-10473984D01*
X5906467Y-10473984D02*
X5858848Y-10473984D01*
X5858848Y-10473984D02*
X5839801Y-10464460D01*
X5839801Y-10464460D02*
X5830277Y-10445412D01*
X5830277Y-10445412D02*
X5830277Y-10426365D01*
X5830277Y-10426365D02*
X5839801Y-10407317D01*
X5839801Y-10407317D02*
X5858848Y-10397793D01*
X5858848Y-10397793D02*
X5906467Y-10397793D01*
X5906467Y-10397793D02*
X5925515Y-10388270D01*
X6020753Y-10340650D02*
X6020753Y-10540650D01*
X6020753Y-10350174D02*
X6039801Y-10340650D01*
X6039801Y-10340650D02*
X6077896Y-10340650D01*
X6077896Y-10340650D02*
X6096943Y-10350174D01*
X6096943Y-10350174D02*
X6106467Y-10359698D01*
X6106467Y-10359698D02*
X6115991Y-10378746D01*
X6115991Y-10378746D02*
X6115991Y-10435889D01*
X6115991Y-10435889D02*
X6106467Y-10454936D01*
X6106467Y-10454936D02*
X6096943Y-10464460D01*
X6096943Y-10464460D02*
X6077896Y-10473984D01*
X6077896Y-10473984D02*
X6039801Y-10473984D01*
X6039801Y-10473984D02*
X6020753Y-10464460D01*
X6201705Y-10454936D02*
X6211229Y-10464460D01*
X6211229Y-10464460D02*
X6201705Y-10473984D01*
X6201705Y-10473984D02*
X6192182Y-10464460D01*
X6192182Y-10464460D02*
X6201705Y-10454936D01*
X6201705Y-10454936D02*
X6201705Y-10473984D01*
X6201705Y-10350174D02*
X6211229Y-10359698D01*
X6211229Y-10359698D02*
X6201705Y-10369222D01*
X6201705Y-10369222D02*
X6192182Y-10359698D01*
X6192182Y-10359698D02*
X6201705Y-10350174D01*
X6201705Y-10350174D02*
X6201705Y-10369222D01*
M02*
