  0
SECTION
  2
HEADER
  9
$ANGBASE
  50
0.0
  9
$ANGDIR
  70
1
  9
$MEASUREMENT
  70
0
  0
ENDSEC
  0
SECTION
  2
TABLES
  0
TABLE
  2
LTYPE
  70
4
  0
LTYPE
  5
40F
  2
CONTINUOUS
  70
0
  3
Solid line
  72
65
  73
0
  40
0.0
  0
LTYPE
  5
410
  2
DASHDOT
 70
0
  3
Dash Dot ____ _ ____ _
 72
65
 73
4
 40
2.0
 49
1.25
 49
-0.25
 49
0.25
 49
-0.25
  0
LTYPE
  5
411
  2
DASHED
 70
0
  3
Dashed __ __ __ __ __
 72
65
 73
2
 40
0.75
 49
0.5
 49
-0.25
  0
LTYPE
  5
43B
  2
DOTTED
 70
0
  3
Dotted .  .  .  .
 72
65
 73
2
 40
0.2
 49
0.0
 49
-0.2
  0
ENDTAB
  0
TABLE
  2
STYLE
  70
4
  0
STYLE
  2
KICAD
  70
0
  40
0
  41
1
  42
1
  50
0
  71
0
  3
isocp.shx
  0
STYLE
  2
KICADB
  70
0
  40
0
  41
1
  42
1
  50
0
  71
0
  3
isocp.shx
  0
STYLE
  2
KICADI
  70
0
  40
0
  41
1
  42
1
  50
15
  71
0
  3
isocp.shx
  0
STYLE
  2
KICADBI
  70
0
  40
0
  41
1
  42
1
  50
15
  71
0
  3
isocp.shx
  0
ENDTAB
  0
TABLE
  2
LAYER
  70
1
  0
LAYER
  2
BLACK
  70
0
  62
7
  6
CONTINUOUS
  0
ENDTAB
  0
ENDSEC
  0
SECTION
  2
ENTITIES
0
LINE
8
BLACK
6
CONTINUOUS
10
4.3003766535433066
20
-1.7990906692913387
11
4.3009093307086612
21
-1.7996233464566929
0
LINE
8
BLACK
6
CONTINUOUS
10
4.3009093307086612
20
-1.7996233464566929
11
4.3009842519685035
21
-1.8
0
LINE
8
BLACK
6
CONTINUOUS
10
4.3009842519685035
20
-1.8
11
4.3009842519685035
21
-4.
0
LINE
8
BLACK
6
CONTINUOUS
10
4.3009842519685035
20
-4.
11
4.3009093307086612
21
-4.0003766535433067
0
LINE
8
BLACK
6
CONTINUOUS
10
4.3009093307086612
20
-4.0003766535433067
11
4.3003766535433066
21
-4.0009093307086614
0
LINE
8
BLACK
6
CONTINUOUS
10
4.3003766535433066
20
-4.0009093307086614
11
4.2999999999999998
21
-4.0009842519685037
0
LINE
8
BLACK
6
CONTINUOUS
10
4.2999999999999998
20
-4.0009842519685037
11
1.8
21
-4.0009842519685037
0
LINE
8
BLACK
6
CONTINUOUS
10
1.8
20
-4.0009842519685037
11
1.7996233464566929
21
-4.0009093307086614
0
LINE
8
BLACK
6
CONTINUOUS
10
1.7996233464566929
20
-4.0009093307086614
11
1.7990906692913387
21
-4.0003766535433067
0
LINE
8
BLACK
6
CONTINUOUS
10
1.7990906692913387
20
-4.0003766535433067
11
1.7990157480314961
21
-4.
0
LINE
8
BLACK
6
CONTINUOUS
10
1.7990157480314961
20
-4.
11
1.7990157480314961
21
-1.8
0
LINE
8
BLACK
6
CONTINUOUS
10
1.7990157480314961
20
-1.8
11
1.7990906692913387
21
-1.7996233464566929
0
LINE
8
BLACK
6
CONTINUOUS
10
1.7990906692913387
20
-1.7996233464566929
11
1.7996233464566929
21
-1.7990906692913387
0
LINE
8
BLACK
6
CONTINUOUS
10
1.7996233464566929
20
-1.7990906692913387
11
1.8
21
-1.7990157480314961
0
LINE
8
BLACK
6
CONTINUOUS
10
1.8
20
-1.7990157480314961
11
4.2999999999999998
21
-1.7990157480314961
0
LINE
8
BLACK
6
CONTINUOUS
10
4.2999999999999998
20
-1.7990157480314961
11
4.3003766535433066
21
-1.7990906692913387
0
LINE
8
BLACK
6
CONTINUOUS
10
1.800984251968504
20
-1.800984251968504
11
1.800984251968504
21
-3.9990157480314958
0
LINE
8
BLACK
6
CONTINUOUS
10
1.800984251968504
20
-3.9990157480314958
11
4.2990157480314961
21
-3.9990157480314958
0
LINE
8
BLACK
6
CONTINUOUS
10
4.2990157480314961
20
-3.9990157480314958
11
4.2990157480314961
21
-1.800984251968504
0
LINE
8
BLACK
6
CONTINUOUS
10
4.2990157480314961
20
-1.800984251968504
11
1.800984251968504
21
-1.800984251968504
0
CIRCLE
8
BLACK
10
4.1535433070866139
20
-1.9488188976377951
40
0.0492125984251968
0
CIRCLE
8
BLACK
10
2.2078740157480317
20
-3.0118110236220472
40
0.0196850393700787
0
CIRCLE
8
BLACK
10
2.1078740157480316
20
-3.0118110236220472
40
0.0196850393700787
0
CIRCLE
8
BLACK
10
2.0078740157480315
20
-3.0118110236220472
40
0.0196850393700787
0
CIRCLE
8
BLACK
10
1.9488188976377951
20
-1.9488188976377951
40
0.0492125984251968
0
CIRCLE
8
BLACK
10
4.0928346456692912
20
-2.7999999999999998
40
0.0196850393700787
0
CIRCLE
8
BLACK
10
4.0928346456692912
20
-2.8999999999999999
40
0.0196850393700787
0
CIRCLE
8
BLACK
10
4.0928346456692912
20
-3.
40
0.0196850393700787
0
CIRCLE
8
BLACK
10
4.0928346456692912
20
-3.1000000000000001
40
0.0196850393700787
0
CIRCLE
8
BLACK
10
4.0928346456692912
20
-3.1999999999999997
40
0.0196850393700787
0
CIRCLE
8
BLACK
10
4.0928346456692912
20
-3.2999999999999998
40
0.0196850393700787
0
CIRCLE
8
BLACK
10
4.0999999999999996
20
-2.2425196850393698
40
0.0196850393700787
0
CIRCLE
8
BLACK
10
4.0999999999999996
20
-2.3425196850393699
40
0.0196850393700787
0
CIRCLE
8
BLACK
10
4.0999999999999996
20
-2.44251968503937
40
0.0196850393700787
0
CIRCLE
8
BLACK
10
1.9488188976377951
20
-3.8582677165354329
40
0.0492125984251968
0
CIRCLE
8
BLACK
10
3.6999999999999997
20
-2.
40
0.0196850393700787
0
CIRCLE
8
BLACK
10
3.6999999999999997
20
-2.1000000000000001
40
0.0196850393700787
0
CIRCLE
8
BLACK
10
3.6999999999999997
20
-2.1999999999999997
40
0.0196850393700787
0
CIRCLE
8
BLACK
10
3.6999999999999997
20
-2.2999999999999998
40
0.0196850393700787
0
CIRCLE
8
BLACK
10
3.6999999999999997
20
-2.3999999999999999
40
0.0196850393700787
0
CIRCLE
8
BLACK
10
3.6999999999999997
20
-2.5
40
0.0196850393700787
0
CIRCLE
8
BLACK
10
3.6999999999999997
20
-2.6000000000000001
40
0.0196850393700787
0
CIRCLE
8
BLACK
10
3.6999999999999997
20
-2.6999999999999997
40
0.0196850393700787
0
CIRCLE
8
BLACK
10
3.6999999999999997
20
-2.7999999999999998
40
0.0196850393700787
0
CIRCLE
8
BLACK
10
3.6999999999999997
20
-2.8999999999999999
40
0.0196850393700787
0
CIRCLE
8
BLACK
10
3.6999999999999997
20
-3.
40
0.0196850393700787
0
CIRCLE
8
BLACK
10
3.6999999999999997
20
-3.1000000000000001
40
0.0196850393700787
0
CIRCLE
8
BLACK
10
3.6999999999999997
20
-3.1999999999999997
40
0.0196850393700787
0
CIRCLE
8
BLACK
10
3.6999999999999997
20
-3.2999999999999998
40
0.0196850393700787
0
CIRCLE
8
BLACK
10
3.6999999999999997
20
-3.3999999999999999
40
0.0196850393700787
0
CIRCLE
8
BLACK
10
3.6999999999999997
20
-3.5
40
0.0196850393700787
0
CIRCLE
8
BLACK
10
3.6999999999999997
20
-3.6000000000000001
40
0.0196850393700787
0
CIRCLE
8
BLACK
10
3.6999999999999997
20
-3.6999999999999997
40
0.0196850393700787
0
CIRCLE
8
BLACK
10
3.6999999999999997
20
-3.7999999999999998
40
0.0196850393700787
0
CIRCLE
8
BLACK
10
4.1535433070866139
20
-3.8582677165354329
40
0.0492125984251968
0
CIRCLE
8
BLACK
10
4.0944881889763778
20
-3.541732283464567
40
0.0196850393700787
0
CIRCLE
8
BLACK
10
4.0944881889763778
20
-3.6417322834645667
40
0.0196850393700787
0
CIRCLE
8
BLACK
10
2.6999999999999997
20
-2.
40
0.0196850393700787
0
CIRCLE
8
BLACK
10
2.6999999999999997
20
-2.1000000000000001
40
0.0196850393700787
0
CIRCLE
8
BLACK
10
2.6999999999999997
20
-2.1999999999999997
40
0.0196850393700787
0
CIRCLE
8
BLACK
10
2.6999999999999997
20
-2.2999999999999998
40
0.0196850393700787
0
CIRCLE
8
BLACK
10
2.6999999999999997
20
-2.3999999999999999
40
0.0196850393700787
0
CIRCLE
8
BLACK
10
2.6999999999999997
20
-2.5
40
0.0196850393700787
0
CIRCLE
8
BLACK
10
2.6999999999999997
20
-2.6000000000000001
40
0.0196850393700787
0
CIRCLE
8
BLACK
10
2.6999999999999997
20
-2.6999999999999997
40
0.0196850393700787
0
CIRCLE
8
BLACK
10
2.6999999999999997
20
-2.7999999999999998
40
0.0196850393700787
0
CIRCLE
8
BLACK
10
2.6999999999999997
20
-2.8999999999999999
40
0.0196850393700787
0
CIRCLE
8
BLACK
10
2.6999999999999997
20
-3.
40
0.0196850393700787
0
CIRCLE
8
BLACK
10
2.6999999999999997
20
-3.1000000000000001
40
0.0196850393700787
0
CIRCLE
8
BLACK
10
2.6999999999999997
20
-3.1999999999999997
40
0.0196850393700787
0
CIRCLE
8
BLACK
10
2.6999999999999997
20
-3.2999999999999998
40
0.0196850393700787
0
CIRCLE
8
BLACK
10
2.6999999999999997
20
-3.3999999999999999
40
0.0196850393700787
0
CIRCLE
8
BLACK
10
2.6999999999999997
20
-3.5
40
0.0196850393700787
0
CIRCLE
8
BLACK
10
2.6999999999999997
20
-3.6000000000000001
40
0.0196850393700787
0
CIRCLE
8
BLACK
10
2.6999999999999997
20
-3.6999999999999997
40
0.0196850393700787
0
CIRCLE
8
BLACK
10
2.6999999999999997
20
-3.7999999999999998
40
0.0196850393700787
  0
ENDSEC
  0
EOF
