<?xml version="1.0" standalone="no"?>
<!DOCTYPE svg PUBLIC "-//W3C//DTD SVG 1.1//EN"
"http://www.w3.org/Graphics/SVG/1.1/DTD/svg11.dtd">
<svg width="5248.16" height="4648.16" viewBox="0 0 5248.16 4648.16" version="1.1"
xmlns="http://www.w3.org/2000/svg"
xmlns:xlink="http://www.w3.org/1999/xlink">
<circle cx="1924" cy="4123" r="38" style=""/>
<circle cx="1924" cy="3923" r="38" style=""/>
<circle cx="1924" cy="3723" r="38" style=""/>
<circle cx="1924" cy="3523" r="38" style=""/>
<circle cx="1924" cy="3323" r="38" style=""/>
<circle cx="1924" cy="3123" r="38" style=""/>
<circle cx="1924" cy="2923" r="38" style=""/>
<circle cx="1924" cy="2723" r="38" style=""/>
<circle cx="1924" cy="2523" r="38" style=""/>
<circle cx="1924" cy="2324" r="38" style=""/>
<circle cx="1924" cy="2124" r="38" style=""/>
<circle cx="1924" cy="1924" r="38" style=""/>
<circle cx="1924" cy="1724" r="38" style=""/>
<circle cx="1924" cy="1524" r="38" style=""/>
<circle cx="1924" cy="1324" r="38" style=""/>
<circle cx="1924" cy="1124" r="38" style=""/>
<circle cx="1924" cy="924" r="38" style=""/>
<circle cx="1924" cy="724" r="38" style=""/>
<circle cx="1924" cy="524" r="38" style=""/>
<circle cx="3923" cy="524" r="38" style=""/>
<circle cx="3923" cy="724" r="38" style=""/>
<circle cx="3923" cy="924" r="38" style=""/>
<circle cx="3923" cy="1124" r="38" style=""/>
<circle cx="3923" cy="1324" r="38" style=""/>
<circle cx="3923" cy="1524" r="38" style=""/>
<circle cx="3923" cy="1724" r="38" style=""/>
<circle cx="3923" cy="1924" r="38" style=""/>
<circle cx="3923" cy="2124" r="38" style=""/>
<circle cx="3923" cy="2324" r="38" style=""/>
<circle cx="3923" cy="2523" r="38" style=""/>
<circle cx="3923" cy="2723" r="38" style=""/>
<circle cx="3923" cy="2923" r="38" style=""/>
<circle cx="3923" cy="3123" r="38" style=""/>
<circle cx="3923" cy="3323" r="38" style=""/>
<circle cx="3923" cy="3523" r="38" style=""/>
<circle cx="3923" cy="3723" r="38" style=""/>
<circle cx="3923" cy="3923" r="38" style=""/>
<circle cx="3923" cy="4123" r="38" style=""/>
<circle cx="4709" cy="3923" r="38" style=""/>
<circle cx="4709" cy="3723" r="38" style=""/>
<circle cx="4709" cy="3123" r="38" style=""/>
<circle cx="4709" cy="2923" r="38" style=""/>
<circle cx="4709" cy="2723" r="38" style=""/>
<circle cx="4709" cy="2523" r="38" style=""/>
<circle cx="4709" cy="2324" r="38" style=""/>
<circle cx="4709" cy="2124" r="38" style=""/>
<circle cx="4723" cy="1124" r="38" style=""/>
<circle cx="4723" cy="924" r="38" style=""/>
<circle cx="4723" cy="724" r="38" style=""/>
</svg>
