<?xml version="1.0" standalone="no"?>
<!DOCTYPE svg PUBLIC "-//W3C//DTD SVG 1.1//EN"
"http://www.w3.org/Graphics/SVG/1.1/DTD/svg11.dtd">
<svg width="262.866" height="234.066" viewBox="0 0 5476.38 4876.38" version="1.1"
xmlns="http://www.w3.org/2000/svg"
xmlns:xlink="http://www.w3.org/1999/xlink">
<polyline points="120.077,4638.19 122.347,4661.23 129.069,4683.39 139.983,4703.81 154.671,4721.7 172.569,4736.39 192.989,4747.31 215.145,4754.03 238.189,4756.3 5238.19,4756.3 5261.23,4754.03 5283.39,4747.31 5303.81,4736.39 5321.7,4721.7 5336.39,4703.81 5347.31,4683.39 5354.03,4661.23 5356.3,4638.19 5356.3,238.189 5354.03,215.145 5347.31,192.989 5336.39,172.569 5321.7,154.671 5303.81,139.983 5283.39,129.069 5261.23,122.347 5238.19,120.077 238.189,120.077 215.145,122.347 192.989,129.069 172.569,139.983 154.671,154.671 139.983,172.569 129.069,192.989 122.347,215.145 120.077,238.189 120.077,4638.19" style="stroke:rgb(103,198,105);stroke-width:236.220472;fill:none;stroke-opacity:0.5;stroke-linecap:round;stroke-linejoin:round;;fill:none"/>
<polyline points="120.077,4638.19 122.347,4661.23 129.069,4683.39 139.983,4703.81 154.671,4721.7 172.569,4736.39 192.989,4747.31 215.145,4754.03 238.189,4756.3 5238.19,4756.3 5261.23,4754.03 5283.39,4747.31 5303.81,4736.39 5321.7,4721.7 5336.39,4703.81 5347.31,4683.39 5354.03,4661.23 5356.3,4638.19 5356.3,238.189 5354.03,215.145 5347.31,192.989 5336.39,172.569 5321.7,154.671 5303.81,139.983 5283.39,129.069 5261.23,122.347 5238.19,120.077 238.189,120.077 215.145,122.347 192.989,129.069 172.569,139.983 154.671,154.671 139.983,172.569 129.069,192.989 122.347,215.145 120.077,238.189 120.077,4638.19" style="stroke:rgb(0,0,0);stroke-width:1px;fill:none;stroke-opacity:1;stroke-linecap:round;stroke-linejoin:round;;fill:none"/>
</svg>
